<?xml version="1.0" encoding="utf-8"?>
<!-- Generator: Adobe Illustrator 16.0.0, SVG Export Plug-In . SVG Version: 6.00 Build 0)  -->
<!DOCTYPE svg PUBLIC "-//W3C//DTD SVG 1.1//EN" "http://www.w3.org/Graphics/SVG/1.1/DTD/svg11.dtd">
<svg version="1.1" id="Layer_1" xmlns="http://www.w3.org/2000/svg" xmlns:xlink="http://www.w3.org/1999/xlink" x="0px" y="0px"
	 width="26.917px" height="26.413px" viewBox="291.833 324.333 26.917 26.413"
	 enable-background="new 291.833 324.333 26.917 26.413" xml:space="preserve">
<path fill="#CC99CC" d="M304.583,350.746c7.042,0,12.75-5.708,12.75-12.75s-5.708-12.75-12.75-12.75s-12.75,5.708-12.75,12.75
	S297.542,350.746,304.583,350.746z M300.549,333.962c0.468-0.468,1.225-0.468,1.688,0l2.341,2.341l2.34-2.341
	c0.469-0.468,1.226-0.468,1.689,0c0.463,0.468,0.467,1.226,0,1.688l-2.342,2.341l2.342,2.341c0.467,0.468,0.467,1.225,0,1.688
	c-0.469,0.463-1.227,0.468-1.689,0l-2.34-2.341l-2.341,2.341c-0.468,0.468-1.225,0.468-1.688,0c-0.463-0.469-0.468-1.226,0-1.688
	l2.341-2.341l-2.341-2.341C300.081,335.182,300.081,334.425,300.549,333.962z"/>
</svg>
