<?xml version="1.0" encoding="utf-8"?>
<!-- Generator: Adobe Illustrator 16.0.0, SVG Export Plug-In . SVG Version: 6.00 Build 0)  -->
<!DOCTYPE svg PUBLIC "-//W3C//DTD SVG 1.1//EN" "http://www.w3.org/Graphics/SVG/1.1/DTD/svg11.dtd">
<svg version="1.1" id="Layer_1" xmlns="http://www.w3.org/2000/svg" xmlns:xlink="http://www.w3.org/1999/xlink" x="0px" y="0px"
	 width="22px" height="20.25px" viewBox="284.5 285.25 22 20.25" enable-background="new 284.5 285.25 22 20.25"
	 xml:space="preserve">
<path fill="#FF66FF" d="M293.521,289.924c0.569,1.709-0.012,3.434-1.299,3.856c-1.287,0.422-2.793-0.622-3.362-2.33
	c-0.57-1.71,0.012-3.435,1.299-3.857C291.445,287.171,292.952,288.215,293.521,289.924z M288.497,294.135
	c0.753,1.291,0.57,2.793-0.406,3.35c-0.977,0.559-2.378-0.036-3.127-1.326c-0.749-1.291-0.574-2.793,0.402-3.35
	c0.976-0.558,2.378,0.036,3.127,1.326H288.497z M287.254,302.207c2.087-5.629,5.796-7.06,7.442-7.06c1.645,0,5.354,1.431,7.442,7.06
	c0.143,0.387,0.207,0.801,0.207,1.215v0.064c0,1.028-0.833,1.86-1.861,1.86c-0.458,0-0.912-0.056-1.354-0.167l-3.506-0.877
	c-0.609-0.151-1.247-0.151-1.856,0l-3.506,0.877c-0.442,0.111-0.896,0.167-1.354,0.167c-1.028,0-1.86-0.833-1.86-1.86v-0.064
	C287.048,303.007,287.111,302.593,287.254,302.207L287.254,302.207z M301.301,297.485c-0.976-0.557-1.159-2.059-0.406-3.35
	c0.753-1.291,2.151-1.884,3.127-1.326c0.977,0.557,1.159,2.059,0.406,3.35C303.676,297.45,302.277,298.044,301.301,297.485
	L301.301,297.485z M296.852,293.781c-1.287-0.422-1.869-2.147-1.299-3.856c0.569-1.709,2.075-2.753,3.363-2.331
	c1.287,0.422,1.868,2.147,1.298,3.857C299.644,293.159,298.139,294.203,296.852,293.781z"/>
</svg>
